<svg fill="#999999" xmlns="http://www.w3.org/2000/svg" xmlns:xlink="http://www.w3.org/1999/xlink" version="1.1" x="0px" y="0px" viewBox="0 0 90 100" enable-background="new 0 0 90 100" xml:space="preserve">
  <g transform="scale(0.55)">
    <g transform="translate(30, 75)">
      <path d="M86.067,87.067H13.933c-0.552,0-1-0.448-1-1V13.933c0-0.552,0.448-1,1-1h72.134c0.552,0,1,0.448,1,1v72.134   C87.067,86.619,86.619,87.067,86.067,87.067z M14.933,85.067h70.134V14.933H14.933V85.067z"></path>
      <path d="M96.887,97.887H3.113c-0.552,0-1-0.448-1-1V3.113c0-0.552,0.448-1,1-1h93.774c0.552,0,1,0.448,1,1v93.774   C97.887,97.439,97.439,97.887,96.887,97.887z M4.113,95.887h91.774V4.113H4.113V95.887z"></path>
      <path d="M62.417,69.257c-0.256,0-0.512-0.098-0.707-0.293L36.535,43.79c-0.391-0.391-0.391-1.023,0-1.414s1.023-0.391,1.414,0   L63.124,67.55c0.391,0.391,0.391,1.023,0,1.414C62.929,69.16,62.673,69.257,62.417,69.257z"></path>
      <path d="M70.009,65.428c-0.256,0-0.512-0.098-0.707-0.293L37.629,33.462c-0.391-0.391-0.391-1.023,0-1.414s1.023-0.391,1.414,0   l31.673,31.673c0.391,0.391,0.391,1.023,0,1.414C70.521,65.33,70.265,65.428,70.009,65.428z"></path>
    </g>
  </g>
  <g transform="scale(0.8)">
    <g transform="translate(25, 3)">
      <path d="M52.992,19.813l-3.918,3.918l40.354,40.353l3.918-3.918L52.992,19.813z M52.992,21.934l7.417,7.416l-1.798,1.797    l-7.416-7.416L52.992,21.934z M59.672,32.208l1.797-1.797l29.756,29.755l-1.798,1.797L59.672,32.208z"></path>
      <polygon points="39.36,13.205 42.722,9.843 46.083,13.205 47.144,12.144 43.782,8.782 47.144,5.42 46.083,4.36 42.722,7.722     39.36,4.36 38.299,5.42 41.661,8.782 38.299,12.144   "></polygon>
      <polygon points="36.529,32.999 38.488,31.039 40.448,32.999 41.508,31.938 39.549,29.979 41.508,28.02 40.448,26.959     38.488,28.919 36.529,26.959 35.468,28.02 37.428,29.979 35.468,31.938   "></polygon>
      <polygon points="59.542,15.957 60.958,14.541 62.374,15.957 63.434,14.896 62.02,13.48 63.434,12.065 62.374,11.004 60.958,12.42     59.542,11.004 58.482,12.065 59.896,13.48 58.482,14.896   "></polygon>
    </g>
  </g>
</svg>
